<svg width="512" height="512" viewBox="0 0 512 512" fill="none" xmlns="http://www.w3.org/2000/svg">
<rect width="512" height="512" rx="110" fill="#FEE11D"/>
<path fill-rule="evenodd" clip-rule="evenodd" d="M345.379 245.314C348.122 244.983 350.751 244.969 353.166 245.314C354.563 242.077 354.803 236.498 353.547 230.423C351.678 221.392 349.148 215.928 343.922 216.778C338.695 217.629 338.502 224.171 340.37 233.201C341.422 238.282 343.295 242.624 345.379 245.314" fill="#1A1919"/>
<path fill-rule="evenodd" clip-rule="evenodd" d="M300.508 252.457C304.247 254.114 306.546 255.212 307.446 254.252C308.024 253.653 307.85 252.511 306.957 251.039C305.112 247.997 301.316 244.912 297.287 243.179C289.05 239.6 279.226 240.791 271.648 246.289C269.145 248.14 266.773 250.703 267.113 252.26C267.224 252.763 267.597 253.143 268.476 253.267C270.539 253.505 277.747 249.826 286.05 249.312C291.913 248.95 296.768 250.8 300.508 252.457" fill="#1A1919"/>
<path fill-rule="evenodd" clip-rule="evenodd" d="M292.985 256.793C288.115 257.57 285.428 259.191 283.704 260.699C282.232 261.998 281.322 263.433 281.33 264.443C281.334 264.923 281.539 265.2 281.703 265.339C281.924 265.537 282.188 265.647 282.503 265.647C283.604 265.647 286.067 264.648 286.067 264.648C292.846 262.199 297.317 262.495 301.749 263.006C304.197 263.283 305.354 263.437 305.891 262.589C306.05 262.346 306.243 261.819 305.752 261.016C304.61 259.147 299.693 255.99 292.985 256.793" fill="#1A1919"/>
<path fill-rule="evenodd" clip-rule="evenodd" d="M330.227 272.702C333.534 274.343 337.176 273.699 338.361 271.264C339.546 268.829 337.825 265.525 334.519 263.884C331.21 262.244 327.569 262.888 326.384 265.323C325.199 267.758 326.92 271.061 330.227 272.702" fill="#1A1919"/>
<path fill-rule="evenodd" clip-rule="evenodd" d="M351.489 253.944C348.803 253.899 346.574 256.877 346.511 260.596C346.449 264.316 348.577 267.369 351.263 267.415C353.95 267.461 356.178 264.482 356.241 260.763C356.303 257.043 354.176 253.99 351.489 253.944" fill="#1A1919"/>
<mask id="mask0" mask-type="alpha" maskUnits="userSpaceOnUse" x="79" y="66" width="355" height="380">
<path fill-rule="evenodd" clip-rule="evenodd" d="M79 66H433.128V445.458H79V66Z" fill="white"/>
</mask>
<g mask="url(#mask0)">
<path fill-rule="evenodd" clip-rule="evenodd" d="M171.029 321.015C170.36 320.17 169.262 320.428 168.199 320.677C167.457 320.853 166.615 321.051 165.693 321.034C163.716 320.996 162.044 320.142 161.103 318.686C159.879 316.788 159.951 313.959 161.302 310.719C161.483 310.283 161.699 309.798 161.932 309.269C164.086 304.389 167.694 296.219 163.644 288.435C160.597 282.576 155.627 278.928 149.65 278.16C143.913 277.427 138.007 279.575 134.24 283.771C128.296 290.392 127.368 299.399 128.517 302.583C128.938 303.748 129.597 304.071 130.076 304.136C131.086 304.274 132.582 303.531 133.518 300.988C133.586 300.804 133.676 300.52 133.787 300.16C134.204 298.815 134.981 296.311 136.254 294.303C137.79 291.881 140.18 290.214 142.987 289.608C145.845 288.989 148.767 289.539 151.214 291.156C155.376 293.908 156.98 299.059 155.203 303.974C154.283 306.515 152.791 311.376 153.12 315.368C153.786 323.452 158.71 326.697 163.134 327.042C167.436 327.206 170.442 324.769 171.202 322.986C171.651 321.933 171.273 321.29 171.029 321.015" fill="#1A1919"/>
<path fill-rule="evenodd" clip-rule="evenodd" d="M211.921 172.564C225.95 156.196 243.222 141.966 258.692 133.976C259.227 133.699 259.795 134.285 259.505 134.817C258.277 137.063 255.911 141.872 255.162 145.52C255.044 146.088 255.657 146.516 256.132 146.189C265.758 139.565 282.501 132.468 297.186 131.556C297.818 131.517 298.122 132.333 297.62 132.722C295.387 134.451 292.945 136.845 291.16 139.266C290.857 139.678 291.142 140.271 291.651 140.275C301.964 140.349 316.501 143.993 325.976 149.357C326.618 149.721 326.161 150.975 325.444 150.809C311.108 147.491 287.64 144.975 263.264 150.977C241.502 156.336 224.891 164.61 212.774 173.508C212.161 173.959 211.425 173.142 211.921 172.564ZM339.648 338.039C340.064 337.863 340.35 337.382 340.303 336.907C340.244 336.322 339.726 335.896 339.147 335.956C339.147 335.956 309.208 340.43 280.924 329.977C284.004 319.867 292.196 323.518 304.578 324.527C326.895 325.87 346.897 322.579 361.679 318.295C374.488 314.583 391.313 307.266 404.38 296.854C408.788 306.628 410.344 317.386 410.344 317.386C410.344 317.386 413.756 316.769 416.607 318.541C419.301 320.215 421.277 323.695 419.928 332.691C417.18 349.499 410.103 363.142 398.21 375.691C390.972 383.558 382.182 390.398 372.126 395.373C366.786 398.205 361.098 400.656 355.093 402.636C310.258 417.42 264.366 401.166 249.572 366.263C248.391 363.64 247.393 360.893 246.605 358.019C240.301 335.018 245.654 307.423 262.384 290.054C262.385 290.053 262.382 290.047 262.383 290.046C263.414 288.939 264.466 287.637 264.466 285.997C264.466 284.627 263.604 283.18 262.855 282.155C257.003 273.584 236.728 258.978 240.798 230.712C243.72 210.406 261.31 196.105 277.709 196.953C279.094 197.025 280.482 197.111 281.865 197.194C288.973 197.618 295.172 198.539 301.023 198.786C310.815 199.213 319.621 197.776 330.049 189.003C333.567 186.043 336.387 183.477 341.16 182.66C341.661 182.574 342.909 182.123 345.404 182.241C347.95 182.378 350.373 183.084 352.551 184.547C360.911 190.165 362.097 203.769 362.531 213.721C362.778 219.402 363.458 233.146 363.691 237.091C364.223 246.114 366.571 247.386 371.324 248.965C373.996 249.853 376.478 250.516 380.134 251.551C391.201 254.689 397.762 257.872 401.899 261.96C404.365 264.515 405.512 267.23 405.866 269.819C407.172 279.43 398.475 291.304 375.454 302.092C350.288 313.885 319.76 316.87 298.666 314.499C297.048 314.317 291.296 313.659 291.276 313.656C274.403 311.361 264.778 333.377 274.905 348.46C281.431 358.18 299.207 364.507 316.993 364.51C357.773 364.516 389.117 346.933 400.776 331.749C401.125 331.295 401.16 331.245 401.71 330.407C402.282 329.534 401.81 329.053 401.095 329.546C391.569 336.127 349.258 362.253 304 354.394C304 354.394 298.5 353.48 293.48 351.508C289.49 349.941 281.142 346.065 280.127 337.415C316.651 348.82 339.648 338.039 339.648 338.039ZM139.037 250.404C126.335 252.898 115.139 260.166 108.293 270.206C104.202 266.761 96.578 260.091 95.2318 257.492C84.3022 236.538 107.16 195.8 123.127 172.795C162.59 115.938 224.397 72.9032 253.01 80.7105C257.66 82.0396 273.065 100.073 273.065 100.073C273.065 100.073 244.465 116.094 217.942 138.427C182.205 166.209 155.209 206.588 139.037 250.404ZM160.38 346.557C158.459 346.888 156.496 347.02 154.519 346.972C135.407 346.454 114.762 329.083 112.711 308.482C110.443 285.71 121.968 268.185 142.372 264.031C144.811 263.534 147.76 263.248 150.938 263.414C162.371 264.046 179.218 272.91 183.066 298.054C186.476 320.323 181.061 342.997 160.38 346.557ZM419.281 306.234C419.116 305.649 418.051 301.713 416.586 296.969C415.119 292.226 413.603 288.887 413.603 288.887C419.48 280.002 419.585 272.056 418.804 267.556C417.969 261.977 415.669 257.224 411.033 252.309C406.396 247.395 396.914 242.363 383.588 238.585C382.064 238.153 377.038 236.761 376.595 236.625C376.562 236.333 376.229 219.982 375.925 212.963C375.704 207.89 375.272 199.968 372.839 192.164C369.937 181.604 364.882 172.362 358.572 166.449C375.985 148.225 386.855 128.151 386.829 110.927C386.779 77.808 346.491 67.7864 296.843 88.5421C296.791 88.5649 286.399 93.0135 286.324 93.051C286.277 93.0053 267.306 74.2126 267.021 73.9614C210.416 24.1138 33.4326 222.727 90.0173 270.964L102.384 281.54C99.1753 289.929 97.9159 299.541 98.9446 309.877C100.266 323.152 107.049 335.879 118.043 345.713C128.479 355.046 142.2 360.956 155.516 360.944C177.536 412.175 227.847 443.605 286.838 445.373C350.117 447.27 403.237 417.293 425.494 363.443C426.95 359.662 433.128 342.633 433.128 327.601C433.128 312.495 424.669 306.234 419.281 306.234V306.234Z" fill="#1A1919"/>
</g>
</svg>
