<svg width="512" height="512" viewBox="0 0 512 512" fill="none" xmlns="http://www.w3.org/2000/svg">
<rect width="512" height="512" rx="110" fill="white"/>
<path d="M422.333 247.5C422.333 337.25 347.75 410 255.667 410C241.908 410 228.583 408.383 215.8 405.3C211.925 404.367 207.875 404.725 204.308 406.508L167.833 424.75C158.417 429.458 147.333 422.608 147.333 412.075V378.533C147.333 373.742 145.192 369.275 141.658 366.042C109.208 336.375 89 294.25 89 247.5C89 157.75 163.583 85 255.667 85C347.75 85 422.333 157.75 422.333 247.5Z" fill="url(#paint0_radial)"/>
<path opacity="0.05" d="M347.267 195.767C343.7 195.767 340.242 196.95 337.267 199.192L289.817 234.317C288.708 235.15 287.483 235.567 286.192 235.567C284.942 235.567 283.767 235.175 282.775 234.433L249.675 209.517C242.942 204.508 235.008 201.867 226.7 201.867C213.567 201.867 201.492 208.458 194.4 219.5L184.308 235.258L149.975 291.05C146.708 296.167 146.458 302.483 149.383 307.833C152.367 313.283 158 316.667 164.083 316.667C167.65 316.667 171.108 315.483 174.083 313.242L221.533 278.117C222.642 277.283 223.867 276.867 225.158 276.867C226.408 276.867 227.583 277.258 228.575 278L261.675 302.917C268.417 307.933 276.342 310.567 284.65 310.567C297.783 310.567 309.858 303.975 316.95 292.933L327.042 277.175L361.375 221.383C364.642 216.267 364.892 209.95 361.967 204.6C358.983 199.15 353.35 195.767 347.267 195.767Z" fill="black"/>
<path opacity="0.07" d="M347.267 199.933C344.608 199.933 342.017 200.825 339.775 202.516L292.3 237.666C290.5 239.025 288.4 239.733 286.2 239.733C284.042 239.733 282 239.05 280.283 237.766L247.175 212.841C241.183 208.383 234.108 206.033 226.7 206.033C214.992 206.033 204.233 211.908 197.908 221.758L187.825 237.516L153.533 293.25C151.058 297.125 150.867 301.858 153.05 305.841C155.267 309.891 159.608 312.508 164.092 312.508C166.75 312.508 169.342 311.616 171.583 309.925L219.058 274.775C220.858 273.416 222.958 272.708 225.158 272.708C227.317 272.708 229.358 273.391 231.075 274.675L264.183 299.6C270.175 304.058 277.25 306.408 284.658 306.408C296.367 306.408 307.125 300.533 313.45 290.683L323.533 274.925L357.825 219.191C360.3 215.316 360.492 210.583 358.308 206.6C356.092 202.55 351.758 199.933 347.267 199.933Z" fill="black"/>
<path d="M342.283 205.841L294.783 241.008C289.7 244.841 282.783 244.841 277.783 241.091L244.667 216.166C230.667 205.75 210.833 209.333 201.417 224L191.333 239.75L157.083 295.416C152.083 303.25 161.667 312.166 169.083 306.583L216.583 271.416C221.667 267.583 228.583 267.583 233.583 271.333L266.7 296.258C280.7 306.675 300.533 303.091 309.95 288.425L320.033 272.675L354.283 217.008C359.283 209.175 349.7 200.258 342.283 205.841Z" fill="white"/>
<defs>
<radialGradient id="paint0_radial" cx="0" cy="0" r="1" gradientUnits="userSpaceOnUse" gradientTransform="translate(148.058 409.817) scale(396.767)">
<stop stop-color="#1292FF"/>
<stop offset="0.079" stop-color="#2982FF"/>
<stop offset="0.23" stop-color="#4E69FF"/>
<stop offset="0.351" stop-color="#6559FF"/>
<stop offset="0.428" stop-color="#6D53FF"/>
<stop offset="0.754" stop-color="#DF47AA"/>
<stop offset="0.946" stop-color="#FF6257"/>
</radialGradient>
</defs>
</svg>
