<svg width="512" height="512" viewBox="0 0 512 512" fill="none" xmlns="http://www.w3.org/2000/svg">
<rect width="512" height="512" rx="110" fill="#004023"/>
<path fill-rule="evenodd" clip-rule="evenodd" d="M236.48 344.561L234.329 345.257C220.476 349.723 199.991 356.594 181.595 364.8C180.61 365.246 179.966 366.495 179.966 366.495C179.619 367.269 179.19 368.212 178.704 369.278L178.647 369.414C176.575 373.965 173.731 380.811 172.531 383.59L171.576 385.787C171.427 386.14 171.519 386.539 171.791 386.798C171.966 386.96 172.189 387.049 172.422 387.057C172.566 387.057 172.711 387.028 172.846 386.96L175.063 385.94C180.11 383.615 186.463 380.093 193.152 377.012L193.38 376.91C206.089 371.067 220.428 364.468 229.05 360.474C229.059 360.47 230.447 359.756 231.144 358.405L237.61 345.831C237.781 345.504 237.728 345.109 237.479 344.828C237.242 344.548 236.83 344.45 236.48 344.561" fill="#00C807"/>
<path fill-rule="evenodd" clip-rule="evenodd" d="M184.837 325.071C185.74 323.346 189.928 315.527 190.879 313.776L191.054 313.479C219.105 262.148 253.294 213.732 292.652 169.582L293.743 168.358C294.085 167.976 294.142 167.436 293.892 166.99C293.643 166.544 293.13 166.302 292.617 166.366L290.979 166.587C265.144 170.037 239.012 174.813 213.261 180.783C210.707 181.472 209.051 183.091 208.696 183.469C189.424 205.85 171.169 229.42 154.429 253.56C153.588 254.776 153.496 257.699 153.496 257.699C153.496 257.699 157.719 289.135 163.861 312.306C148.633 354.769 135.048 410.719 135.048 410.719C134.943 411.08 135.013 411.475 135.245 411.777C135.477 412.079 135.836 412.261 136.226 412.278H144.896C145.435 412.287 145.921 411.968 146.101 411.479L146.701 409.903C155.555 386.502 165.627 363.403 176.781 340.891C179.379 335.652 184.837 325.071 184.837 325.071" fill="#00C807"/>
<path fill-rule="evenodd" clip-rule="evenodd" d="M305.362 178.755L305.344 177.157C305.331 176.652 305.011 176.201 304.52 176.031C304.034 175.857 303.482 175.989 303.14 176.371L302.058 177.587C256.168 229.066 217.602 286.214 187.413 347.421L186.712 348.853C186.498 349.303 186.581 349.847 186.936 350.204C187.172 350.45 187.488 350.582 187.821 350.591C187.987 350.591 188.162 350.561 188.324 350.497L189.836 349.889C215.609 339.534 241.943 330.551 268.088 323.221C269.657 322.788 270.975 321.725 271.725 320.319C283.203 298.648 309.799 256.691 309.799 256.691C310.479 255.739 310.312 254.341 310.312 254.341C310.312 254.341 305.655 204.153 305.362 178.755" fill="#00C807"/>
<path fill-rule="evenodd" clip-rule="evenodd" d="M364.697 106.375C358.183 100.902 348.729 98.3231 334.053 98.0129C320.73 97.7367 304.893 100.516 286.949 106.256C284.259 107.174 282.134 108.615 280.211 110.446C261.977 127.061 244.221 144.682 227.442 162.89L226.158 164.276C225.795 164.667 225.742 165.24 226.014 165.695C226.29 166.15 226.829 166.383 227.359 166.273L229.225 165.882C256.282 160.273 283.566 155.985 310.343 153.147C312.108 152.96 313.926 153.534 315.241 154.698C316.573 155.871 317.317 157.545 317.282 159.287C316.831 185.063 317.799 210.971 320.174 236.288L320.331 237.941C320.38 238.451 320.743 238.871 321.251 239.003C321.357 239.024 321.453 239.041 321.549 239.046C321.961 239.058 322.355 238.867 322.605 238.527L323.586 237.172C338.683 216.295 355.09 195.992 372.377 176.803C372.373 176.803 372.36 176.798 372.36 176.798C374.283 174.661 374.8 173.314 375.163 171.372C380.6 137.633 372.202 112.69 364.697 106.375" fill="#00C807"/>
</svg>
